<?xml version="1.0" standalone="no"?><!DOCTYPE svg PUBLIC "-//W3C//DTD SVG 1.1//EN" "http://www.w3.org/Graphics/SVG/1.1/DTD/svg11.dtd"><svg class="icon" width="48px" height="48.00px" viewBox="0 0 1024 1024" version="1.1" xmlns="http://www.w3.org/2000/svg"><path fill="#d6204b" d="M391.31097 777.18706569q-20.424297 0-34.81414299 14.389846t-14.38984601 34.349954 14.389846 34.34995501T391.31097 874.66666669q7.42701699 0 14.854035-2.320943T419.626473 865.3828947 430.30281099 854.70655769 437.265639 841.2450887 439.586582 826.39105469q0-20.424297-14.389846-34.814143T391.31097 777.18706569m340.714415 0q-20.424297 0-34.814143 14.389846T682.821396 826.39105469q0 6.49864 1.856754 12.533092T689.784225 850.52886069t7.427017 9.74796 9.74795999 7.427017 12.06890301 5.106075 12.99728 1.856754q19.49592 0 33.885766-14.389846t14.389846-34.349955-14.389846-34.349954T732.025385 777.18706569m48.275612-24.137806l-395.488667 0q-25.99456 0-46.418858-18.103355t-24.137806-45.026291l-40.848594-290.582049-23.209429-135.543065q-1.856754-9.283772-8.355395-15.782411t-14.854034-6.49864l-30.636446 0q-7.42701699 0-12.99728-3.249321t-8.819583-8.819582-3.24932-12.068903q0-10.212149 7.427017-17.174978t17.639166-6.962828l30.636446 0q26.922937 0 47.347235 18.10335399T297.54487799 256.36748269l24.13780601 135.54306401 40.848594 291.51042599q0.928377 8.355394 7.427018 14.85403499t14.854034 6.49864002L780.300997 704.77364769q10.212149 0 17.174978 6.962829T804.438803 728.91145369t-6.962828 17.174977T780.300997 753.04925969m-364.852221-97.479601q-6.49864 0-12.068903-2.78513201t-8.819583-7.89120499T391.31097 633.28860669q-0.928377-10.212149 5.570263-17.639166t16.710789-8.355394l329.573889-24.137806q9.283772-0.928377 16.2466-6.962829T767.303717 562.73194369l38.063463-220.025386q1.856754-13.925657-6.49864-22.281051-1.856754-2.785131-4.641885-4.177698t-6.49864-1.392565l-421.483228 0q-10.212149 0-17.174977-6.96282899T342.106981 290.71743769q0-6.49864 3.24932-12.06890299t8.819583-8.81958301 12.068903-3.24932L787.728015 266.57963169q13.925657 0 26.458748 5.570263T836.00362599 287.93230569q10.212149 12.068903 14.85403501 28.315503t2.785131 33.885766l-38.06346301 219.097009q-3.71350901 25.99456-24.13780599 44.097914t-46.418858 18.103355l-327.717135 24.137806-1.856754 0m0 0z"  /></svg>