<?xml version="1.0" standalone="no"?><!DOCTYPE svg PUBLIC "-//W3C//DTD SVG 1.1//EN" "http://www.w3.org/Graphics/SVG/1.1/DTD/svg11.dtd"><svg class="icon" width="48px" height="48.00px" viewBox="0 0 1024 1024" version="1.1" xmlns="http://www.w3.org/2000/svg"><path fill="#2c2c2c" d="M894.3 913.8c-13.8-172.3-109-316.1-239.8-377.6 69.8-46.5 115.7-125.8 115.7-215.9C770.3 177.1 654.2 61 511 61S251.8 177.1 251.8 320.3c0 90.5 46.3 170.1 116.6 216.5-130.2 61.8-225 205.2-238.7 377-1.9 23.3 16.5 43.2 39.9 43.2h684.8c23.4 0 41.7-19.9 39.9-43.2zM511 137c101 0 183.3 82.2 183.3 183.3S612 503.5 511 503.5c-101 0-183.3-82.2-183.3-183.3S410 137 511 137z m278.5 745h-555c-12.8 0-22.3-11.9-19.5-24.4 3.9-17.2 8.8-34.2 14.7-50.7 16.3-45.5 39.4-86.1 68.8-120.8C356.3 617.7 432.2 580 512 580c79.8 0 155.7 37.7 213.5 106.1 29.4 34.7 52.5 75.4 68.8 120.8 5.9 16.5 10.8 33.5 14.7 50.7 2.8 12.5-6.7 24.4-19.5 24.4z"  /></svg>